<svg viewBox="-50 -50 100 100" width="52" height="52" xmlns="http://www.w3.org/2000/svg" aria-hidden="true"><defs><path id="wax-shape-sub" d="M 35.55 0.00 L 35.38 1.86 L 35.11 3.70 L 35.28 5.58 L 35.43 7.50 L 35.69 9.48 L 35.57 11.41 L 36.02 13.57 L 35.71 15.50 L 35.55 17.53 L 34.87 19.33 L 34.22 21.15 L 32.97 22.58 L 31.91 24.10 L 30.36 25.22 L 29.08 26.50 L 27.86 27.84 L 26.81 29.37 L 25.50 30.65 L 24.42 32.28 L 23.10 33.70 L 21.90 35.42 L 20.26 36.55 L 18.61 37.75 L 16.86 38.87 L 14.91 39.65 L 13.00 40.62 L 10.88 41.04 L 8.79 41.67 L 6.64 42.08 L 4.39 41.84 L 2.18 41.61 L 0.00 41.47 L -2.11 40.35 L -4.14 39.47 L -6.07 38.52 L -7.81 37.05 L -9.57 36.11 L -11.28 35.27 L -12.95 34.48 L -14.77 34.10 L -16.54 33.59 L -18.31 33.08 L -20.31 32.90 L -21.97 32.10 L -23.84 31.57 L -25.40 30.58 L -26.71 29.30 L -27.79 27.82 L -28.95 26.43 L -30.16 25.09 L -31.02 23.47 L -32.29 22.15 L -33.28 20.60 L -34.06 18.91 L -35.03 17.30 L -35.80 15.56 L -36.43 13.74 L -36.88 11.84 L -37.57 9.99 L -38.07 8.06 L -38.27 6.06 L -38.60 4.06 L -39.13 2.06 L -39.41 0.00 L -39.48 -2.07 L -39.30 -4.14 L -38.83 -6.14 L -38.52 -8.15 L -37.65 -10.01 L -36.61 -11.74 L -35.59 -13.41 L -34.77 -15.09 L -33.91 -16.72 L -33.16 -18.38 L -32.64 -20.17 L -31.77 -21.76 L -31.39 -23.71 L -30.64 -25.45 L -29.87 -27.23 L -28.57 -28.55 L -27.30 -29.90 L -25.76 -30.97 L -24.26 -32.07 L -22.50 -32.82 L -20.66 -33.41 L -18.79 -33.90 L -17.04 -34.56 L -15.24 -35.13 L -13.29 -35.32 L -11.50 -35.93 L -9.61 -36.24 L -7.77 -36.80 L -5.87 -37.22 L -3.94 -37.61 L -2.00 -38.23 L -0.00 -38.79 L 2.06 -39.32 L 4.18 -39.93 L 6.41 -40.66 L 8.75 -41.47 L 10.99 -41.51 L 13.25 -41.44 L 15.38 -40.92 L 17.34 -40.03 L 19.02 -38.63 L 20.76 -37.51 L 22.19 -35.93 L 23.40 -34.18 L 24.78 -32.81 L 26.06 -31.38 L 27.25 -29.90 L 28.73 -28.76 L 29.71 -27.13 L 30.97 -25.77 L 31.71 -23.99 L 32.50 -22.29 L 33.16 -20.52 L 33.79 -18.76 L 34.39 -16.98 L 34.56 -15.02 L 34.99 -13.19 L 35.44 -11.38 L 35.54 -9.45 L 35.61 -7.54 L 35.70 -5.65 L 35.73 -3.76 L 35.75 -1.88 Z"></path><clipPath id="disc-clip-sub"><use href="#wax-shape-sub"></use></clipPath><filter id="sig-tint-sub" color-interpolation-filters="sRGB"><feColorMatrix type="matrix" values="
            0 0 0 0 0.722
            0 0 0 0 0.698
            0 0 0 0 0.639
            0 0 0 1 0
          "></feColorMatrix></filter></defs><use href="#wax-shape-sub" fill="#868662"></use><g clip-path="url(#disc-clip-sub)"><image href="../mj-signature-silver/mj-signature-source.png" x="-27" y="-26" width="54" height="54" transform="rotate(-5)" preserveAspectRatio="xMidYMid meet" filter="url(#sig-tint-sub)"></image></g></svg>